<svg width="16" height="16" viewBox="0 0 16 16" fill="none" xmlns="http://www.w3.org/2000/svg">
<path d="M12.5 7.5C12.5 7.69778 12.4414 7.89112 12.3315 8.05557C12.2216 8.22002 12.0654 8.34819 11.8827 8.42388C11.7 8.49957 11.4989 8.51937 11.3049 8.48079C11.1109 8.4422 10.9327 8.34696 10.7929 8.20711C10.653 8.06725 10.5578 7.88907 10.5192 7.69509C10.4806 7.50111 10.5004 7.30004 10.5761 7.11732C10.6518 6.93459 10.78 6.77841 10.9444 6.66853C11.1089 6.55865 11.3022 6.5 11.5 6.5C11.7652 6.5 12.0196 6.60536 12.2071 6.79289C12.3946 6.98043 12.5 7.23478 12.5 7.5ZM9.75 4H7.25C7.05109 4 6.86032 4.07902 6.71967 4.21967C6.57902 4.36032 6.5 4.55109 6.5 4.75C6.5 4.94891 6.57902 5.13968 6.71967 5.28033C6.86032 5.42098 7.05109 5.5 7.25 5.5H9.75C9.94891 5.5 10.1397 5.42098 10.2803 5.28033C10.421 5.13968 10.5 4.94891 10.5 4.75C10.5 4.55109 10.421 4.36032 10.2803 4.21967C10.1397 4.07902 9.94891 4 9.75 4ZM16 7V9C16.0001 9.45919 15.8196 9.90001 15.4976 10.2274C15.1756 10.5548 14.7379 10.7425 14.2788 10.75L13.325 13.4206C13.2382 13.6634 13.0785 13.8735 12.8677 14.0219C12.6569 14.1704 12.4053 14.2501 12.1475 14.25H11.3525C11.0947 14.2501 10.8431 14.1704 10.6323 14.0219C10.4215 13.8735 10.2618 13.6634 10.175 13.4206L10.1125 13.25H6.88562L6.82312 13.4206C6.73647 13.6631 6.57703 13.873 6.3666 14.0214C6.15617 14.1699 5.90502 14.2497 5.6475 14.25H4.8525C4.59466 14.2501 4.3431 14.1704 4.13229 14.0219C3.92149 13.8735 3.76176 13.6634 3.675 13.4206L2.90625 11.2675C2.24916 10.5112 1.80198 9.59571 1.60938 8.6125C1.53801 8.72917 1.50017 8.86324 1.5 9C1.5 9.19891 1.42098 9.38968 1.28033 9.53033C1.13968 9.67098 0.948912 9.75 0.75 9.75C0.551088 9.75 0.360322 9.67098 0.21967 9.53033C0.0790176 9.38968 0 9.19891 0 9C0.000709541 8.52859 0.149179 8.06927 0.424524 7.68663C0.699869 7.304 1.08824 7.0173 1.535 6.86688C1.69256 5.46082 2.36229 4.16199 3.41638 3.21822C4.47047 2.27444 5.83514 1.7518 7.25 1.75H13.75C13.9489 1.75 14.1397 1.82902 14.2803 1.96967C14.421 2.11032 14.5 2.30109 14.5 2.5C14.5 2.69891 14.421 2.88968 14.2803 3.03033C14.1397 3.17098 13.9489 3.25 13.75 3.25H13.125C13.7273 3.79831 14.2062 4.4683 14.53 5.21562L14.5562 5.27812C14.9605 5.35059 15.3264 5.56266 15.5903 5.87734C15.8541 6.19202 15.9991 6.58934 16 7ZM14.5 7C14.5 6.9337 14.4737 6.87011 14.4268 6.82322C14.3799 6.77634 14.3163 6.75 14.25 6.75H14.0212C13.8615 6.74999 13.706 6.69901 13.5773 6.60447C13.4486 6.50993 13.3534 6.37677 13.3056 6.22437C13.0341 5.36154 12.4944 4.60782 11.765 4.07288C11.0356 3.53794 10.1545 3.24966 9.25 3.25H7.25C6.42519 3.24994 5.61819 3.48989 4.9274 3.94058C4.23661 4.39127 3.6919 5.03323 3.35968 5.78818C3.02746 6.54312 2.9221 7.37842 3.05644 8.19222C3.19078 9.00602 3.55902 9.76314 4.11625 10.3713C4.18387 10.4447 4.23595 10.531 4.26937 10.625L5.02875 12.75H5.47125L5.65063 12.25C5.70228 12.1039 5.7979 11.9774 5.92437 11.8879C6.05083 11.7983 6.20193 11.7502 6.35687 11.75H10.6431C10.7981 11.7502 10.9492 11.7983 11.0756 11.8879C11.2021 11.9774 11.2977 12.1039 11.3494 12.25L11.5288 12.75H11.9712L13.0437 9.75C13.0954 9.60391 13.191 9.47741 13.3175 9.38787C13.444 9.29834 13.5951 9.25018 13.75 9.25H14.25C14.3163 9.25 14.3799 9.22366 14.4268 9.17678C14.4737 9.12989 14.5 9.0663 14.5 9V7Z" fill="#002630"/>
</svg>
