<svg width="627" height="62" viewBox="0 0 627 62" fill="none" xmlns="http://www.w3.org/2000/svg">
<path d="M0.692188 61V0.999995H25.8922V12.6H13.8922V24.2H24.4522V36.2H13.8922V61H0.692188ZM30.6922 61V0.999995H43.8922V61H30.6922ZM50.3016 61V0.999995H61.9016L70.3016 24.28H73.5016V0.999995H85.1016V61H73.5016L66.0616 38.36C65.5816 37 64.9416 36.28 63.8216 36.28C62.7016 36.28 61.9016 37.08 61.9016 38.36V61H50.3016ZM91.4734 61V0.999995H109.633C117.553 0.999995 123.393 6.6 123.873 16.28C124.113 21.16 124.273 25.64 124.273 31C124.273 36.36 124.113 40.84 123.873 45.72C123.393 55.4 117.553 61 109.633 61H91.4734ZM111.073 46.84V14.84C111.073 11.32 109.473 10.28 106.993 10.28H104.513V51.4H106.993C109.473 51.4 111.073 50.36 111.073 46.84ZM153.547 61V36.28L142.267 0.999995H154.667L159.307 18.28H160.907L165.467 0.999995H177.867L166.747 36.28V61H153.547ZM194.35 61.8C184.03 61.8 178.43 53.8 177.87 43.88C177.63 39.48 177.47 34.84 177.47 31C177.47 26.6 177.63 22.52 177.87 18.12C178.43 8.2 184.03 0.199996 194.35 0.199996C204.27 0.199996 210.35 8.2 210.91 18.12C211.15 22.52 211.31 26.6 211.31 31C211.31 35.4 211.15 39.48 210.91 43.88C210.35 53.8 204.27 61.8 194.35 61.8ZM191.07 49.56H197.63V13.8C197.63 11.64 196.51 10.12 194.35 10.12C192.19 10.12 191.07 11.64 191.07 13.8V49.56ZM232.942 61.8C223.982 61.8 216.942 55.48 216.942 46.12V0.999995H229.742V47.16C229.742 49.32 230.862 50.84 233.022 50.84C235.182 50.84 236.302 49.32 236.302 47.16V0.999995H249.102V46.12C249.102 55.48 241.902 61.8 232.942 61.8ZM255.536 61V0.999995H273.616C282.176 0.999995 288.336 6.76 288.336 14.76V16.84C288.336 25.64 281.696 28.04 275.136 29.4V31C284.736 33.64 288.336 34.92 288.336 41.88V61H275.296V40.52C275.296 37.4 273.536 35.88 271.056 35.88H268.656V61H255.536ZM268.736 25.08L269.856 25C272.976 24.76 275.296 21.8 275.296 17.56C275.296 13.32 272.976 10.36 269.856 10.12L268.736 10.04V25.08ZM309.911 61V0.999995H321.511L329.911 24.28H333.111V0.999995H344.711V61H333.111L325.671 38.36C325.191 37 324.551 36.28 323.431 36.28C322.311 36.28 321.511 37.08 321.511 38.36V61H309.911ZM351.083 61V0.999995H376.283V12.6H364.283V24.2H374.043V36.2H364.283V49.4H376.283V61H351.083ZM379.073 61L386.833 29.72L380.753 0.999995H393.153L396.273 15H397.873L400.913 0.999995H413.313L407.233 29.72L415.073 61H402.273L399.153 44.92C398.913 43.64 398.273 43 397.073 43C395.953 43 395.233 43.72 394.993 44.92L391.873 61H379.073ZM424.92 61V12.6H415.48V0.999995H447.48V12.6H438.04V61H424.92ZM467.02 61V0.999995H480.14V24.28H486.7V0.999995H499.82V61H486.7V39.24C486.7 37.08 485.58 35.64 483.42 35.64C481.26 35.64 480.14 37.08 480.14 39.24V61H467.02ZM522.319 61.8C511.999 61.8 506.399 53.8 505.839 43.88C505.599 39.48 505.439 34.84 505.439 31C505.439 26.6 505.599 22.52 505.839 18.12C506.399 8.2 511.999 0.199996 522.319 0.199996C532.239 0.199996 538.319 8.2 538.879 18.12C539.119 22.52 539.279 26.6 539.279 31C539.279 35.4 539.119 39.48 538.879 43.88C538.319 53.8 532.239 61.8 522.319 61.8ZM519.039 49.56H525.599V13.8C525.599 11.64 524.479 10.12 522.319 10.12C520.159 10.12 519.039 11.64 519.039 13.8V49.56ZM540.089 61L551.849 0.999995H561.849L566.889 24.2H570.489L575.529 0.999995H585.529L597.289 61H584.889L580.809 38.44C580.569 37 579.929 36.28 578.729 36.28C577.609 36.28 576.889 37 576.649 38.36L572.729 61H564.649L560.729 38.36C560.489 37 559.769 36.28 558.649 36.28C557.449 36.28 556.809 37 556.569 38.44L552.489 61H540.089ZM601.317 61V0.999995H626.517V12.6H614.517V24.2H624.277V36.2H614.517V49.4H626.517V61H601.317Z" fill="white"/>
</svg>
