<svg width="119" height="40" viewBox="0 0 119 40" fill="none" xmlns="http://www.w3.org/2000/svg">
<g clip-path="url(#clip0_7840_12467)">
<path d="M6.1224 31.6232L7.46801 26.6888C8.61101 22.4964 11.7344 19.5473 16.1941 19.5473C20.6539 19.5473 23.7772 22.4964 24.9202 26.6888L26.2658 31.6232C26.3964 32.094 26.7249 32.2805 27.2018 32.1516L31.8102 30.917C32.2873 30.7881 32.4762 30.4639 32.3502 29.9933L25.8608 6.03693C25.7303 5.56178 25.3973 5.37959 24.9202 5.50847L20.2939 6.76983C19.8168 6.89854 19.6323 7.22721 19.7584 7.69804L21.5134 14.1511H10.8748L12.6298 7.69804C12.7559 7.22721 12.5714 6.89854 12.0943 6.76983L7.468 5.50847C6.99091 5.37959 6.65788 5.56178 6.52746 6.03693L0.038042 29.9933C-0.0880035 30.4639 0.100982 30.7881 0.578067 30.917L5.1864 32.1516C5.66332 32.2805 5.99181 32.094 6.1224 31.6232Z" fill="#FF4B27"/>
<path d="M112.523 26.9505C112.655 26.0537 113.432 25.411 114.442 25.411C115.452 25.411 116.173 26.0138 116.274 26.9505H112.523ZM114.472 32.5108C116.456 32.5108 118.218 31.4446 118.814 29.8751C118.849 29.7755 118.804 29.6958 118.647 29.6758L116.365 29.4068C116.254 29.3918 116.179 29.4317 116.118 29.5314C115.8 30.0246 115.234 30.2986 114.518 30.2986C113.392 30.2986 112.594 29.6111 112.508 28.5947H118.91C118.965 28.3854 119.001 27.9719 119.001 27.6082C119.001 25.122 117.123 23.3184 114.533 23.3184C111.882 23.3184 109.898 25.2466 109.898 27.8324C109.898 30.5577 111.812 32.5108 114.472 32.5108ZM103.956 32.2716H106.324C106.455 32.2716 106.525 32.2019 106.525 32.0723V27.8025C106.525 26.6665 107.328 25.8295 108.621 25.8295C108.833 25.8295 109.03 25.8644 109.216 25.8992C109.353 25.9242 109.433 25.8793 109.433 25.7448V23.7618C109.433 23.6323 109.373 23.5576 109.262 23.5376C109.03 23.4928 108.853 23.4828 108.681 23.4828C107.616 23.4828 106.95 23.9761 106.586 25.0074H106.525V23.7569C106.525 23.6273 106.455 23.5576 106.324 23.5576H103.956C103.825 23.5576 103.754 23.6273 103.754 23.7569V32.0723C103.754 32.2019 103.825 32.2716 103.956 32.2716ZM96.0045 26.9505C96.1357 26.0537 96.9132 25.411 97.9229 25.411C98.9326 25.411 99.6546 26.0138 99.7556 26.9505H96.0045ZM97.9532 32.5108C99.9373 32.5108 101.699 31.4446 102.295 29.8751C102.33 29.7755 102.285 29.6958 102.128 29.6758L99.8464 29.4068C99.7353 29.3918 99.6596 29.4317 99.599 29.5314C99.281 30.0246 98.7155 30.2986 97.9986 30.2986C96.8728 30.2986 96.0751 29.6111 95.9893 28.5947H102.391C102.446 28.3854 102.482 27.9719 102.482 27.6082C102.482 25.122 100.604 23.3184 98.0138 23.3184C95.3633 23.3184 93.3792 25.2466 93.3792 27.8324C93.3792 30.5577 95.2926 32.5108 97.9532 32.5108ZM83.8576 32.2716H86.2103C86.3415 32.2716 86.4122 32.2019 86.4122 32.0723V26.9954C86.4122 26.1733 87.0281 25.5604 87.9066 25.5604C88.7497 25.5604 89.305 26.1234 89.305 27.0253V32.0723C89.305 32.2019 89.3757 32.2716 89.507 32.2716H91.8596C91.9909 32.2716 92.0616 32.2019 92.0616 32.0723V26.4423C92.0616 24.5092 90.8903 23.3184 89.0425 23.3184C87.8258 23.3184 86.9978 23.8316 86.4728 24.8131H86.4122V20.4984C86.4122 20.3689 86.3415 20.2991 86.2103 20.2991H83.8576C83.7264 20.2991 83.6557 20.3689 83.6557 20.4984V32.0723C83.6557 32.2019 83.7264 32.2716 83.8576 32.2716ZM71.6704 32.2716H73.9524C74.0584 32.2716 74.1392 32.2268 74.1745 32.1022L75.6891 26.6964H75.7497L77.2642 32.1022C77.2996 32.2268 77.3803 32.2716 77.4864 32.2716H79.7683C79.8794 32.2716 79.9652 32.2168 79.9955 32.1022L82.3633 23.7818C82.4037 23.6472 82.333 23.5576 82.1916 23.5576H79.7784C79.6572 23.5576 79.5815 23.6124 79.5512 23.7319L78.3244 28.6545H78.2638L76.9613 23.727C76.931 23.6124 76.8603 23.5576 76.7392 23.5576H74.6996C74.5784 23.5576 74.5077 23.6124 74.4774 23.727L73.1749 28.6545H73.1143L71.8875 23.7319C71.8572 23.6124 71.7815 23.5576 71.6603 23.5576H69.2471C69.1057 23.5576 69.0351 23.6472 69.0754 23.7818L71.4432 32.1022C71.4735 32.2168 71.5593 32.2716 71.6704 32.2716ZM61.5178 35.5002C63.2999 35.5002 64.5065 34.5884 65.2082 32.6901L68.4999 23.7867C68.5504 23.6472 68.4797 23.5576 68.3384 23.5576H65.8545C65.7434 23.5576 65.6626 23.6024 65.6222 23.722L63.7846 29.2523H63.724L61.856 23.722C61.8207 23.6173 61.75 23.5576 61.6288 23.5576H59.1146C58.9632 23.5576 58.8975 23.6472 58.9531 23.7867L62.3911 32.5058C62.1488 32.9193 61.6339 33.1535 60.6999 33.1535C60.4929 33.1535 60.301 33.1336 60.1243 33.0887C59.9931 33.0588 59.9073 33.0987 59.9022 33.2282V34.977C59.9022 35.0966 59.9224 35.1863 60.0385 35.2311C60.4929 35.4155 60.9826 35.5002 61.5178 35.5002ZM55.4696 23.3184C54.2529 23.3184 53.4249 23.8316 52.8999 24.8131H52.8393V23.7569C52.8393 23.6273 52.7686 23.5576 52.6373 23.5576H50.2847C50.1534 23.5576 50.0828 23.6273 50.0828 23.7569V32.0723C50.0828 32.2019 50.1534 32.2716 50.2847 32.2716H52.6373C52.7686 32.2716 52.8393 32.2019 52.8393 32.0723V26.9954C52.8393 26.1733 53.4552 25.5604 54.3336 25.5604C55.1768 25.5604 55.7321 26.1234 55.7321 27.0253V32.0723C55.7321 32.2019 55.8028 32.2716 55.934 32.2716H58.2867C58.4179 32.2716 58.4886 32.2019 58.4886 32.0723V26.4423C58.4886 24.5092 57.3173 23.3184 55.4696 23.3184ZM41.7678 28.0566L43.1814 24.1853H43.2016L44.6152 28.0566H41.7678ZM37.4916 32.2716H40.0513C40.1623 32.2716 40.2431 32.2218 40.2835 32.1122L40.8843 30.4631H45.4987L46.0994 32.1122C46.1398 32.2218 46.2206 32.2716 46.3317 32.2716H48.8913C49.0427 32.2716 49.1084 32.182 49.0528 32.0425L44.3577 20.4386C44.3173 20.339 44.2466 20.2842 44.1255 20.2842H42.2575C42.1363 20.2842 42.0656 20.339 42.0252 20.4386L37.3301 32.0425C37.2745 32.182 37.3402 32.2716 37.4916 32.2716Z" fill="#FF4B27"/>
<path d="M96.1198 12.5714C96.1198 11.4503 96.9225 10.6133 97.9827 10.6133C99.058 10.6133 99.8608 11.4503 99.8608 12.5714C99.8608 13.6924 99.058 14.5294 97.9827 14.5294C96.9225 14.5294 96.1198 13.6924 96.1198 12.5714ZM97.6949 20.553C100.679 20.553 102.602 18.9986 102.602 16.4426V8.80971C102.602 8.68017 102.531 8.61042 102.4 8.61042H100.335C100.204 8.61042 100.133 8.68017 100.133 8.80971V9.71649H100.073C99.5881 8.86452 98.6642 8.37126 97.4374 8.37126C95.105 8.37126 93.3633 10.15 93.3633 12.5714C93.3633 14.9778 95.0899 16.7117 97.4071 16.7117C98.437 16.7117 99.2398 16.3679 99.785 15.6803H99.8456V16.3231C99.8456 17.5935 99.0429 18.2064 97.7252 18.2064C96.8367 18.2064 96.1097 17.9224 95.625 17.2597C95.5442 17.1501 95.4534 17.1352 95.3473 17.1999L93.4895 18.3359C93.3784 18.4057 93.3481 18.4953 93.4188 18.6099C94.1963 19.8256 95.7007 20.553 97.6949 20.553ZM89.0266 8.37126C87.8098 8.37126 86.9819 8.88444 86.4568 9.86595H86.3962V8.8097C86.3962 8.68016 86.3256 8.61041 86.1943 8.61041H83.8417C83.7104 8.61041 83.6397 8.68017 83.6397 8.8097V17.1252C83.6397 17.2547 83.7104 17.3245 83.8417 17.3245H86.1943C86.3256 17.3245 86.3962 17.2547 86.3962 17.1252V12.0482C86.3962 11.2261 87.0122 10.6133 87.8906 10.6133C88.7337 10.6133 89.2891 11.1763 89.2891 12.0781V17.1252C89.2891 17.2547 89.3597 17.3245 89.491 17.3245H91.8436C91.9749 17.3245 92.0456 17.2547 92.0456 17.1252V11.4952C92.0456 9.56204 90.8743 8.37126 89.0266 8.37126ZM78.9749 6.06944C78.9749 6.93636 79.6867 7.63887 80.5652 7.63887C81.4436 7.63887 82.1555 6.93636 82.1555 6.06944C82.1555 5.20251 81.4436 4.5 80.5652 4.5C79.6867 4.5 78.9749 5.20251 78.9749 6.06944ZM79.3888 17.3245H81.7415C81.8727 17.3245 81.9434 17.2547 81.9434 17.1252V8.80971C81.9434 8.68017 81.8727 8.61042 81.7415 8.61042H79.3888C79.2576 8.61042 79.1869 8.68017 79.1869 8.80971V17.1252C79.1869 17.2547 79.2576 17.3245 79.3888 17.3245ZM74.2092 17.5636C76.3094 17.5636 77.8997 16.3529 77.8997 14.4597C77.8997 13.1842 77.203 12.4169 75.6935 12.0781L73.9719 11.6895C73.361 11.55 73.0682 11.3308 73.0682 11.0069C73.0682 10.6233 73.467 10.3492 74.0173 10.3492C74.5878 10.3492 75.0321 10.6432 75.2391 11.1514C75.2896 11.271 75.3602 11.3158 75.4814 11.3009L77.521 11.0368C77.6624 11.0169 77.6977 10.977 77.6826 10.8076C77.5614 9.56204 76.1175 8.37126 74.0678 8.37126C72.0484 8.37126 70.4682 9.52717 70.4682 11.2909C70.4682 12.6212 71.281 13.5031 72.8309 13.8319L74.3303 14.1508C75.0169 14.2952 75.2997 14.5045 75.2997 14.8483C75.2997 15.2917 74.8402 15.5857 74.2142 15.5857C73.4923 15.5857 72.9117 15.1921 72.7299 14.6241C72.6896 14.4995 72.6189 14.4497 72.5028 14.4597L70.347 14.6191C70.2057 14.6291 70.1653 14.6789 70.1703 14.8333C70.2208 16.3978 71.8969 17.5636 74.2092 17.5636ZM63.5719 17.5636C64.728 17.5636 65.5458 17.0804 66.086 16.0689H66.1466V17.1252C66.1466 17.2547 66.2173 17.3245 66.3486 17.3245H68.7012C68.8325 17.3245 68.9031 17.2547 68.9031 17.1252V8.80971C68.9031 8.68017 68.8325 8.61042 68.7012 8.61042H66.3486C66.2173 8.61042 66.1466 8.68017 66.1466 8.80971V13.8867C66.1466 14.7038 65.5357 15.3216 64.6876 15.3216C63.8697 15.3216 63.3295 14.7486 63.3295 13.8568V8.8097C63.3295 8.68016 63.2588 8.61041 63.1276 8.61041H60.775C60.6437 8.61041 60.573 8.68017 60.573 8.8097V14.4397C60.573 16.3729 61.7544 17.5636 63.5719 17.5636ZM52.6215 12.9749C52.6215 11.824 53.4242 10.972 54.5602 10.972C55.6961 10.972 56.4988 11.824 56.4988 12.9749C56.4988 14.1258 55.6961 14.9778 54.5602 14.9778C53.4242 14.9778 52.6215 14.1258 52.6215 12.9749ZM54.5602 17.5786C57.241 17.5786 59.2553 15.6056 59.2553 12.9749C59.2553 10.3443 57.241 8.37126 54.5602 8.37126C51.8794 8.37126 49.865 10.3443 49.865 12.9749C49.865 15.6056 51.8794 17.5786 54.5602 17.5786ZM45.7959 17.3245H48.1485C48.2798 17.3245 48.3504 17.2547 48.3504 17.1252V5.55127C48.3504 5.42173 48.2798 5.35198 48.1485 5.35198H45.7959C45.6646 5.35198 45.5939 5.42173 45.5939 5.55127V9.80617H40.6413V5.55127C40.6413 5.42173 40.5706 5.35198 40.4393 5.35198H38.0867C37.9554 5.35198 37.8848 5.42173 37.8848 5.55127V17.1252C37.8848 17.2547 37.9554 17.3245 38.0867 17.3245H40.4393C40.5706 17.3245 40.6413 17.2547 40.6413 17.1252V12.4667H45.5939V17.1252C45.5939 17.2547 45.6646 17.3245 45.7959 17.3245Z" fill="#FF4B27"/>
</g>
<defs>
<clipPath id="clip0_7840_12467">
<rect width="119" height="31" fill="white" transform="translate(0 4.5)"/>
</clipPath>
</defs>
</svg>
